<svg xmlns="http://www.w3.org/2000/svg" viewBox="0 0 1000 1540" role="img" aria-labelledby="title desc">
  <title id="title">Conifer Design Flow and MRF synthesis</title>
  <desc id="desc">Vertical flow diagram. MCELL, EM simulation and MMOD produce M-MODELS. MRF then combines M-MODELS with design goals to produce an optimized matching network.</desc>
  <defs>
    <marker id="arrow" markerWidth="12" markerHeight="12" refX="10" refY="6" orient="auto" markerUnits="strokeWidth">
      <path d="M2 2 L10 6 L2 10 Z" fill="#2f67c7"/>
    </marker>
    <style>
      text{font-family:Poppins,Arial,sans-serif}
      .bg{fill:#f8fff4}
      .panel{fill:#fff;stroke:#d5ead8;stroke-width:2;rx:22}
      .box{fill:#fff;stroke:#d5ead8;stroke-width:2;rx:14}
      .tool{fill:#edfbe2;stroke:#379237;stroke-width:4;rx:14}
      .output{fill:#fff;stroke:#54b435;stroke-width:3;rx:14}
      .line{stroke:#2f67c7;stroke-width:4;fill:none;marker-end:url(#arrow)}
      .title{font-size:34px;font-weight:700;fill:#255e25}
      .sectionTitle{font-size:26px;font-weight:700;fill:#a7594b}
      .head{font-size:23px;font-weight:700;fill:#255e25}
      .toolText{font-size:28px;font-weight:700;fill:#379237}
      .body{font-size:18px;font-weight:500;fill:#5d735d}
    </style>
  </defs>

  <rect class="bg" width="1000" height="1540"/>
  <text x="500" y="55" text-anchor="middle" class="title">Conifer Design Flow</text>

  <rect x="120" y="90" width="760" height="720" class="panel"/>
  <text x="500" y="132" text-anchor="middle" class="sectionTitle">Generate parametric M-MODELS</text>

  <rect x="300" y="175" width="400" height="78" class="box"/>
  <text x="500" y="206" text-anchor="middle" class="head">Passive component configurations</text>
  <text x="500" y="231" text-anchor="middle" class="body">type, geometry, shield, sweeps</text>

  <line x1="500" y1="253" x2="500" y2="292" class="line"/>

  <rect x="390" y="300" width="220" height="74" class="tool"/>
  <text x="500" y="347" text-anchor="middle" class="toolText">MCELL</text>

  <line x1="500" y1="374" x2="500" y2="413" class="line"/>

  <rect x="260" y="421" width="480" height="84" class="output"/>
  <text x="500" y="455" text-anchor="middle" class="head">DRC-clean GDS component library</text>
  <text x="500" y="481" text-anchor="middle" class="body">layouts for generated geometries</text>

  <line x1="500" y1="505" x2="500" y2="544" class="line"/>

  <rect x="340" y="552" width="320" height="74" class="box"/>
  <text x="500" y="599" text-anchor="middle" class="head">EM simulation</text>

  <line x1="500" y1="626" x2="500" y2="665" class="line"/>

  <rect x="260" y="673" width="480" height="84" class="output"/>
  <text x="500" y="707" text-anchor="middle" class="head">Network parameters</text>
  <text x="500" y="733" text-anchor="middle" class="body">Y-parameters from electromagnetic simulation</text>

  <line x1="500" y1="757" x2="500" y2="796" class="line"/>

  <rect x="390" y="804" width="220" height="74" class="tool"/>
  <text x="500" y="851" text-anchor="middle" class="toolText">MMOD</text>

  <line x1="500" y1="878" x2="500" y2="917" class="line"/>

  <rect x="320" y="925" width="360" height="64" class="output"/>
  <text x="500" y="966" text-anchor="middle" class="head">M-MODELS</text>

  <rect x="120" y="1035" width="760" height="480" class="panel"/>
  <text x="500" y="1077" text-anchor="middle" class="sectionTitle">Synthesize matching network with MRF</text>

  <rect x="300" y="1120" width="400" height="74" class="box"/>
  <text x="500" y="1151" text-anchor="middle" class="head">Design goals</text>
  <text x="500" y="1176" text-anchor="middle" class="body">targets and constraints</text>

  <line x1="500" y1="1194" x2="500" y2="1230" class="line"/>

  <rect x="320" y="1238" width="360" height="64" class="output"/>
  <text x="500" y="1279" text-anchor="middle" class="head">M-MODELS</text>

  <line x1="500" y1="1302" x2="500" y2="1338" class="line"/>

  <rect x="420" y="1346" width="160" height="66" class="tool"/>
  <text x="500" y="1388" text-anchor="middle" class="toolText">MRF</text>

  <line x1="500" y1="1412" x2="500" y2="1448" class="line"/>

  <rect x="275" y="1456" width="450" height="64" class="output"/>
  <text x="500" y="1497" text-anchor="middle" class="head">Optimized matching network</text>
</svg>
